<svg viewBox="0 0 512 512" xml:space="preserve" xmlns="http://www.w3.org/2000/svg" enable-background="new 0 0 512 512"><path d="M128.971 380.536v49.381c0 4.025 1.621 7.721 4.204 10.394l.181.181c2.734 2.704 6.458 4.415 10.604 4.415h211.495c4.115 0 7.87-1.711 10.574-4.415a14.85 14.85 0 0 0 4.414-10.574v-49.381H128.971zm0-274.784v34.752h96.09a3.694 3.694 0 0 1 3.696 3.695v77.857a3.694 3.694 0 0 1-3.696 3.695h-96.09v147.395h241.472V361.64h-65.151a3.69 3.69 0 0 1-3.694-3.693v-78.579a3.691 3.691 0 0 1 3.694-3.694h65.151V105.752H128.971zm226.484-57.463H143.388l-.03.029h-.36l-.181.029h-.211l-.149.03h-.241l-.121.032h-.06l-.12.029h-.062l-.149.029h-.03l-.121.03h-.06l-.12.03h-.062l-.149.029h-.062l-.089.029h-.089l-.091.03-.089.032h-.09l-.091.029-.089.029h-.089l-.091.03-.089.03-.09.029-.091.03h-.09l-.06.03-.091.029-.089.031-.089.03-.091.03h-.09l-.091.059h-.09l-.089.061h-.06l-.272.121h-.089l-.09.059h-.06l-.121.061-.151.06-.06.031-.119.06-.181.061h-.03l-.121.059-.179.092h-.03c-4.117 1.951-7 5.525-8.141 9.852l-.061.18-.03.151v.03l-.06.179-.03.181-.03.181-.03.181-.03.18-.03.18-.032.182-.03.179-.03.21-.03.182v.18l-.03.18v.391l-.03.182V98.363h241.472V62.677l-.029-.182v-.391l-.029-.18-.032-.18v-.182l-.03-.21-.029-.179-.029-.182-.03-.18-.03-.18-.029-.181-.029-.181-.03-.181-.062-.179v-.03l-.029-.151-.061-.18-.029-.18-.061-.181-.061-.181-.061-.18-.029-.18c-1.412-3.936-3.755-6.76-7.449-8.711l-.15-.092h-.029l-.301-.148-.181-.092-.149-.059-.51-.211-.362-.119-.329-.121v-.03l-.182-.03-.359-.119-.15-.061h-.03l-.151-.03-.179-.06-.181-.061-.359-.059-.182-.063-.21-.029-.181-.029-.18-.03-.18-.03-.182-.029-.179-.029-.21-.032h-.182l-.18-.03h-.18l-.211-.029h-.362l-.209-.029h-.384zM221.397 218.362v-70.469H77.365v70.469h144.032zm87.59 64.701v71.188h74.403l-10.213-29.977h-.031v-.091l-.03-.03v-.06l-.03-.03v-.091l-.029-.03v-.118l-.029-.029v-.15l-.03-.03v-.24l-.03-.029V322.778l.03-.029v-.211l.03-.029v-.151l.029-.03v-.089l.029-.029v-.092l.03-.029v-.059l.03-.06v-.031l.031-.03v-.059l.029-.06.03-.09.03-.091h.029l.03-.09.03-.06v-.032l.029-.059.031-.03.03-.03v-.029l.03-.06.029-.03.029-.031v-.06l.03-.03.03-.029.029-.03.029-.06.032-.062.03-.03.029-.029.029-.029.03-.061.03-.029.029-.029.03-.032.031-.03.03-.029.029-.029.03-.03.03-.06h.029l.029-.062.03-.03.03-.029.091-.061h.03l.029-.029.029-.029.03-.03.211-.181h.06l.029-.029.032-.03.03-.03.059-.031h.03l.3-.148.03-.03.302-.121.09-.03h.029l.15-.029v-.03h.09l.061-.03h.091l.06-.029h.178l.032-.029H377.068l.029.029h.181l.029.029h.119l.03.03h.091l.03.03h.059l.029.029h.092l.029.03h.03l.03.03h.029l17.783 6.248v-42.804c-28.88-.011-57.775-.011-86.671-.011zm-52.175 122.403c-1.802-1.802-4.325-2.913-7.119-2.913a10.011 10.011 0 0 0-7.089 2.913c-1.802 1.834-2.945 4.357-2.945 7.119 0 2.704 1.053 5.138 2.764 6.94l.181.148a9.915 9.915 0 0 0 7.089 2.945c2.794 0 5.317-1.113 7.119-2.945a10.036 10.036 0 0 0 2.942-7.089c0-2.761-1.141-5.284-2.942-7.118zm-7.12-10.302c4.807 0 9.161 1.953 12.314 5.106 3.186 3.123 5.137 7.51 5.137 12.314 0 4.807-1.951 9.191-5.106 12.316a17.385 17.385 0 0 1-12.345 5.106 17.374 17.374 0 0 1-12.316-5.106l-.24-.24c-3.002-3.155-4.866-7.389-4.866-12.076 0-4.805 1.953-9.191 5.106-12.314a17.374 17.374 0 0 1 12.316-5.106zm100.205-247.631h-59.654v71.189h59.654v-71.189zM204.155 249.48c1.381 0 2.853-.901 3.304-2.072 1.232-2.463-.631-5.287-3.304-5.287h-7.39c-1.381 0-2.853.902-3.304 2.072-1.231 2.465.63 5.287 3.304 5.287h7.39zm29.527 0c1.381 0 2.854-.901 3.304-2.072 1.232-2.463-.632-5.287-3.304-5.287h-7.389c-1.383 0-2.853.902-3.304 2.072-1.232 2.465.63 5.287 3.304 5.287h7.389zm29.498 0c1.41 0 2.853-.901 3.334-2.072 1.231-2.463-.662-5.287-3.334-5.287h-7.359c-1.413 0-2.854.902-3.334 2.072-1.232 2.465.66 5.287 3.334 5.287h7.359zm17.061 13.489c1.11 5.557 8.14 3.152 7.359-.812 0-2.434-1.532-6.219-2.645-8.351-2.702-4.506-8.771-.33-6.487 3.515.752 1.262 1.773 4.175 1.773 5.648zm.089 29.105c0 1.383.902 2.854 2.072 3.305 2.464 1.231 5.317-.631 5.317-3.305v-7.389c0-1.382-.9-2.854-2.072-3.305-2.464-1.232-5.317.631-5.317 3.305v7.389zm0 29.528c0 1.383.902 2.854 2.072 3.304 2.464 1.231 5.317-.63 5.317-3.304v-7.39c0-1.381-.9-2.853-2.072-3.304-2.464-1.232-5.317.631-5.317 3.304v7.39zm-6.038 24.179c-1.562 1.173-1.951 3.605-.72 5.137 1.261 1.683 3.575 1.953 5.196.751 2.432-1.892 4.266-3.904 5.857-6.579 1.532-2.582-.781-6.065-3.785-5.465-1.141.21-1.982.721-2.612 1.802-.75 1.502-2.582 3.303-3.936 4.354zm-26.463 3.035c-1.381 0-2.854.901-3.304 2.072-1.23 2.463.632 5.287 3.304 5.287h7.389c1.383 0 2.855-.902 3.304-2.073 1.231-2.464-.63-5.286-3.304-5.286h-7.389zm-29.525 0c-1.383 0-2.855.901-3.304 2.072-1.232 2.463.63 5.287 3.304 5.287h7.389c1.381 0 2.853-.902 3.304-2.073 1.23-2.464-.632-5.286-3.304-5.286h-7.389zm-29.528 0c-1.383 0-2.855.901-3.304 2.072-1.232 2.463.63 5.287 3.304 5.287h7.389c1.381 0 2.854-.902 3.334-2.073 1.2-2.464-.661-5.286-3.334-5.286h-7.389zm-27.755-1.381c-4.866-1.923-7.21 5.077-3.004 6.758 3.004 1.202 5.196 1.862 8.5 1.983 5.197 0 4.806-7.39.27-7.39-2.282-.059-3.723-.511-5.766-1.351zm-8.831-21.748c0-1.411-.902-2.854-2.072-3.334-2.464-1.231-5.317.661-5.317 3.334v7.39c0 1.383.9 2.822 2.072 3.304 2.463 1.231 5.317-.63 5.317-3.304v-7.39zm0-29.528c0-1.381-.902-2.853-2.072-3.304-2.464-1.232-5.317.631-5.317 3.304v7.39c0 1.383.9 2.854 2.072 3.304 2.463 1.231 5.317-.63 5.317-3.304v-7.39zm0-29.527c0-1.381-.902-2.853-2.072-3.304-2.464-1.23-5.317.631-5.317 3.304v7.39c0 1.383.9 2.855 2.072 3.305 2.463 1.23 5.317-.631 5.317-3.305v-7.39zm15.049-24.511c-.33 0-.691.061-1.051.151a3.352 3.352 0 0 0-1.351-.03c-2.404 0-6.189 1.501-8.351 2.613-4.506 2.734-.3 8.801 3.545 6.487 1.231-.722 4.174-1.772 5.617-1.772l.721-.179.871.089h7.389c1.381 0 2.853-.901 3.304-2.072 1.232-2.463-.63-5.287-3.304-5.287h-7.39zm-74.073-73.322c-2.042 0-3.694-1.65-3.694-3.693s1.651-3.695 3.694-3.695h43.254c2.013 0 3.695 1.652 3.695 3.695s-1.683 3.693-3.695 3.693H93.166zm0 18.023a3.69 3.69 0 0 1-3.694-3.693 3.69 3.69 0 0 1 3.694-3.695H184c2.013 0 3.664 1.65 3.664 3.695 0 2.043-1.651 3.693-3.664 3.693H93.166zm0 15.139a3.69 3.69 0 0 1-3.694-3.693 3.692 3.692 0 0 1 3.694-3.696H184c2.013 0 3.664 1.653 3.664 3.696 0 2.042-1.651 3.693-3.664 3.693H93.166zM230.889 74.09c-2.013 0-3.695-1.65-3.695-3.693s1.683-3.695 3.695-3.695h37.638c2.042 0 3.693 1.652 3.693 3.695s-1.651 3.693-3.693 3.693h-37.638zM118.427 470.107a3.69 3.69 0 0 1-3.694-3.693c0-2.013 1.651-3.695 3.694-3.695h234.655c2.043 0 3.694 1.683 3.694 3.695a3.69 3.69 0 0 1-3.694 3.693H118.427zm126.489 15.892a3.693 3.693 0 0 1-3.694-3.696 3.69 3.69 0 0 1 3.694-3.693h180.646a3.692 3.692 0 0 1 3.695 3.693 3.694 3.694 0 0 1-3.695 3.696H244.916zm199.12 0a3.694 3.694 0 0 1-3.695-3.696 3.692 3.692 0 0 1 3.695-3.693h22.588a3.692 3.692 0 0 1 3.695 3.693 3.694 3.694 0 0 1-3.695 3.696h-22.588zm-362.286-.481c-2.011 0-3.693-1.652-3.693-3.695s1.683-3.693 3.693-3.693h85.609c2.042 0 3.693 1.65 3.693 3.693s-1.651 3.695-3.693 3.695H81.75zM294.088 33.391c-2.043 0-3.694-1.652-3.694-3.695s1.651-3.693 3.694-3.693h78.669c6.157 0 11.745 2.553 15.8 6.576l.181.211c3.964 4.055 6.397 9.582 6.397 15.589v56.652c0 2.042-1.652 3.693-3.695 3.693s-3.693-1.651-3.693-3.693V48.378c0-4.023-1.623-7.689-4.236-10.392l-.181-.181c-2.732-2.704-6.458-4.415-10.572-4.415h-78.67zM45.376 248.1a3.693 3.693 0 0 1-3.695-3.695 3.692 3.692 0 0 1 3.695-3.693h61.997a3.692 3.692 0 0 1 3.695 3.693 3.693 3.693 0 0 1-3.695 3.695H45.376zm0 18.021c-2.042 0-3.695-1.65-3.695-3.693s1.653-3.695 3.695-3.695h61.997c2.042 0 3.695 1.652 3.695 3.695s-1.653 3.693-3.695 3.693H45.376zm0 18.024a3.692 3.692 0 0 1-3.695-3.693 3.693 3.693 0 0 1 3.695-3.695h61.997a3.693 3.693 0 0 1 3.695 3.695 3.692 3.692 0 0 1-3.695 3.693H45.376zm0 18.023a3.693 3.693 0 0 1-3.695-3.695 3.692 3.692 0 0 1 3.695-3.694h61.997a3.692 3.692 0 0 1 3.695 3.694 3.693 3.693 0 0 1-3.695 3.695H45.376zm0 18.022c-2.042 0-3.695-1.653-3.695-3.695s1.653-3.694 3.695-3.694h61.997c2.042 0 3.695 1.652 3.695 3.694s-1.653 3.695-3.695 3.695H45.376zm0 18.022a3.692 3.692 0 0 1-3.695-3.694 3.693 3.693 0 0 1 3.695-3.695h61.997a3.693 3.693 0 0 1 3.695 3.695 3.692 3.692 0 0 1-3.695 3.694H45.376zm372.138 22.199 9.762 9.762-3.424 3.453-9.823-9.821-14.719 14.328c-5.587-16.371-11.145-32.711-16.731-49.051 16.432 5.796 32.831 11.563 49.263 17.361l-14.328 13.968zM286.548 140.145h67.046c2.012 0 3.693 1.65 3.693 3.693v78.58c0 2.042-1.682 3.693-3.693 3.693h-67.046a3.69 3.69 0 0 1-3.694-3.693v-78.58a3.69 3.69 0 0 1 3.694-3.693z" fill-rule="evenodd" clip-rule="evenodd" fill="#ffdb6e" class="fill-000000"></path></svg>