<svg viewBox="0 0 16.933 16.933" xmlns="http://www.w3.org/2000/svg"><path d="M31.998 0C29.801 0 28 1.805 28 4.002s1.8 4 3.998 4a4.017 4.017 0 0 0 4.002-4A4.019 4.019 0 0 0 31.998 0ZM25.92 6.498a1 1 0 0 0-.475.133L9.627 15.764a.999.999 0 1 0 .996 1.734l15.818-9.133a1 1 0 0 0-.521-1.867Zm12.01.006c-.402.086-.61.267-.742.496a1 1 0 0 0 .369 1.365l15.812 9.127a1 1 0 1 0 .996-1.734L38.553 6.63c-.144-.082-.314-.14-.623-.127Zm-5.932 4.504c-1.266 0-2.085.101-2.758.428-.673.326-1.053.957-1.226 1.373-.173.415-.246.66-.473.939-.227.278-.64.634-1.572 1.027-.935.396-1.49.454-1.86.428-.369-.026-.592-.138-.996-.295-.404-.157-1.085-.332-1.779-.103-.694.229-1.325.714-2.164 1.564-.84.85-1.316 1.48-1.535 2.178-.219.697-.032 1.38.133 1.78.164.4.278.622.31.987.032.365-.01.917-.39 1.854s-.735 1.37-1.012 1.61c-.277.239-.515.313-.908.48-.394.167-1.002.511-1.336 1.158-.333.643-.43 1.419-.42 2.584v.016c-.01 1.165.087 1.939.42 2.582.334.646.942.993 1.336 1.16.393.167.63.247.908.486.277.24.631.672 1.012 1.61.38.937.422 1.488.39 1.853-.032.365-.146.58-.31.98-.165.4-.352 1.082-.133 1.78.219.697.696 1.335 1.535 2.185.169.171.328.325.482.467C16.592 44.851 15 48.587 15 53.006v6.998c0 1.2.375 2.378 1.291 3.152.916.774 2.255 1.022 3.82.717 3.243-.896 6.532-1.707 9.707-2.64l1.473 1.472a.998.998 0 0 0 1.416 0l1.459-1.459c3.219.879 6.46 1.75 9.72 2.627 1.566.305 2.905.057 3.821-.717.916-.774 1.293-1.951 1.293-3.152v-6.998c0-4.42-1.593-8.156-4.656-10.889.152-.14.309-.295.476-.465.84-.85 1.325-1.488 1.543-2.185.219-.697.024-1.38-.14-1.78-.165-.4-.277-.615-.309-.98-.032-.365.018-.916.398-1.853.38-.938.727-1.37 1.004-1.61.278-.24.515-.32.909-.486.393-.167 1.01-.514 1.343-1.16.334-.645.43-1.42.42-2.59.01-1.171-.086-1.947-.42-2.592-.334-.647-.95-.991-1.343-1.158-.394-.167-.631-.241-.909-.48-.277-.24-.623-.673-1.004-1.61-.38-.937-.43-1.489-.398-1.854.032-.365.144-.588.309-.988.164-.4.359-1.082.14-1.78-.218-.696-.703-1.327-1.543-2.177-.839-.85-1.46-1.335-2.154-1.564-.694-.23-1.375-.054-1.78.103-.403.157-.634.27-1.003.295-.37.026-.926-.032-1.862-.428-.931-.393-1.337-.749-1.564-1.027-.227-.278-.3-.524-.473-.94-.173-.415-.559-1.046-1.232-1.372-.673-.327-1.488-.428-2.754-.428zm0 2.004c1.132 0 1.697.138 1.883.228.186.09.139.054.258.34.119.286.298.856.767 1.432.47.576 1.2 1.12 2.34 1.601 1.138.481 2.037.636 2.777.584.74-.051 1.284-.312 1.586-.43.303-.117.26-.122.428-.066.169.056.628.322 1.367 1.07.74.75.995 1.207 1.047 1.374.052.166.05.123-.072.421-.123.299-.395.834-.46 1.573-.064.738.076 1.64.54 2.783.463 1.142.989 1.884 1.55 2.369.563.485 1.132.685 1.432.813.301.127.274.093.348.236.074.142.208.629.2 1.668.008 1.039-.126 1.533-.2 1.676-.074.142-.047.108-.348.236-.3.128-.87.325-1.431.81-.562.486-1.088 1.23-1.551 2.372-.464 1.142-.604 2.036-.54 2.775.065.739.337 1.274.46 1.572.123.299.124.254.072.42-.052.167-.308.624-1.047 1.373a9.364 9.364 0 0 1-.672.623 17.541 17.541 0 0 0-.796-.506 1.002 1.002 0 0 0-.489-1.246l-4-2a1.002 1.002 0 0 0-1.16.184c-1.35 1.352-2.713 2.713-4.049 4.068h-.48c-1.333-1.36-2.701-2.716-4.053-4.068a1.001 1.001 0 0 0-1.152-.184l-4.002 2a1 1 0 0 0-.488 1.246c-.273.163-.539.332-.795.506a9.351 9.351 0 0 1-.672-.623c-.74-.749-.997-1.206-1.05-1.373-.051-.166-.048-.121.075-.42.123-.298.387-.833.451-1.572.065-.739-.07-1.633-.533-2.775s-.994-1.886-1.557-2.372c-.562-.485-1.13-.682-1.431-.81-.3-.128-.274-.094-.348-.236-.073-.143-.2-.637-.191-1.668a1.448 1.448 0 0 0 0-.016c-.01-1.031.118-1.518.191-1.66.074-.143.047-.109.348-.236.3-.128.87-.328 1.431-.813.563-.485 1.094-1.227 1.557-2.37.464-1.141.598-2.044.533-2.782-.064-.74-.328-1.274-.45-1.573-.124-.298-.127-.255-.075-.421.052-.167.31-.625 1.049-1.373.739-.75 1.188-1.015 1.357-1.07.169-.057.133-.052.436.066.302.117.847.378 1.588.43.74.05 1.637-.104 2.775-.585 1.14-.482 1.87-1.025 2.34-1.601.47-.576.648-1.146.767-1.432.12-.286.066-.25.252-.34.187-.09.755-.228 1.887-.228zM4.002 16.008A4.019 4.019 0 0 0 0 20.01c0 2.197 1.805 3.992 4.002 3.992s4-1.795 4-3.992a4.017 4.017 0 0 0-4-4.002zm55.996 0a4.019 4.019 0 0 0-4.002 4.002c0 2.197 1.805 3.992 4.002 3.992S64 22.207 64 20.01a4.019 4.019 0 0 0-4.002-4.002Zm-28 4.998c-4.406 0-8 3.595-8 8.002s3.594 8.002 8 8.002c4.406 0 8.002-3.595 8.002-8.002s-3.596-8.002-8.002-8.002ZM10.211 23.01a.996.996 0 0 0-.953.49 1 1 0 0 0 .369 1.365l1.86 1.078a1 1 0 1 0 .995-1.734l-1.859-1.07a1.123 1.123 0 0 0-.412-.13zm43.748.002a1.043 1.043 0 0 0-.275.011.929.929 0 0 0-.315.116l-1.853 1.07a1 1 0 1 0 .998 1.734l1.851-1.07a1 1 0 0 0-.406-1.861zm-49.957 2.99a1.003 1.003 0 0 0-1.006 1.006v15a1.001 1.001 0 0 0 2.002 0v-15a1.001 1.001 0 0 0-.996-1.006zm55.996 0a1.002 1.002 0 0 0-1.004 1.006v15a1 1 0 0 0 2 0v-15a1.001 1.001 0 0 0-.996-1.006zM26.803 39.225l2.783 2.783L28 43.586l-3.307-3.307Zm10.392 0 2.112 1.054L36 43.586l-1.588-1.578Zm-21.564 1.607a.993.993 0 0 0-.498.135L9.627 44.14a1 1 0 1 0 .996 1.734l5.506-3.174a1 1 0 0 0 .369-1.365.998.998 0 0 0-.867-.504zm32.715 0a1 1 0 0 0-.846.496 1 1 0 0 0 .37 1.365l5.5 3.182a1 1 0 1 0 .995-1.734l-5.5-3.174a.992.992 0 0 0-.52-.135zm-24.899 1.037 3.844 3.844a.999.999 0 0 0 1.416 0l.793-.793.436.435-1.09 7.606-.834.213a5.296 5.296 0 0 1-.174-.463c-.163-.502-.333-1.144-.568-1.795-.236-.651-.532-1.322-1.041-1.896-.51-.575-1.316-1.02-2.231-1.02a3.007 3.007 0 0 0-2.996 3.006v2.996c0 .322.034.638.098.943l-.35.09a1 1 0 0 0-.715 1.219c.136.537.68.86 1.217.723l7.293-1.877-.537 3.76a1 1 0 0 0 .207.76l-8.52 2.296h-.007c-1.136.219-1.747.02-2.104-.281-.359-.303-.584-.834-.584-1.631v-6.998c0-5.04 2.07-8.701 6.447-11.137zm17.106 0c4.376 2.436 6.445 6.097 6.445 11.137v6.998c0 .797-.224 1.328-.582 1.63-.357.303-.968.5-2.103.282l-8.477-2.28 2.127-.57a2.23 2.23 0 0 0 1-.586 4.51 4.51 0 0 0 3.06-1.69l.723.187a1 1 0 0 0 1.219-.723 1.001 1.001 0 0 0-.717-1.219l-.352-.088c.066-.305.102-.621.102-.945v-2.996C42.998 49.296 41.595 48 40 48c-1.483 0-2.274.764-2.76 1.521-.38.594-.612 1.161-.842 1.573a2.178 2.178 0 0 0-.523.056l-.953.243-.858-6.02.448-.44.779.78a1 1 0 0 0 1.418 0zm-8.787.77.466.002c.266.303.577.59.868.88l-1.094 1.077-1.09-1.092c.288-.277.577-.587.85-.867zM4.002 45.004A4.019 4.019 0 0 0 0 49.006c0 2.197 1.805 4 4.002 4s4-1.803 4-4a4.017 4.017 0 0 0-4-4.002zm55.996 0a4.019 4.019 0 0 0-4.002 4.002c0 2.197 1.805 4 4.002 4a4.017 4.017 0 0 0 4.002-4 4.019 4.019 0 0 0-4.002-4.002zM31.73 46.967a1 1 0 0 0 .538 0l1.671 11.68-1.941 1.94-1.94-1.94zM10.035 51.5a1 1 0 0 0-.844.502.999.999 0 0 0 .368 1.365l1.943 1.123a1 1 0 1 0 .996-1.734l-1.941-1.123a.993.993 0 0 0-.522-.133Zm43.881 0a.991.991 0 0 0-.473.133l-1.949 1.123a1 1 0 0 0-.361 1.365 1 1 0 0 0 1.365.37l1.941-1.124a1 1 0 0 0-.523-1.867Zm-17.549 1.59c.08-.005.273.063.512.33.294.329.601.919.773 1.535.173.617.213 1.266.127 1.668-.085.402-.151.462-.332.51l-1.644.445-.598-4.191z" transform="scale(.26458)" opacity="1" fill="#ffdb6e" fill-opacity="1" stroke="none" stroke-width="2" stroke-linecap="round" stroke-linejoin="round" stroke-miterlimit="4" stroke-dasharray="none" stroke-dashoffset="0" stroke-opacity="1" class="fill-000000"></path></svg>